<svg width="733.000000" height="482.000000" viewBox="0 0 733 482" fill="none" xmlns="http://www.w3.org/2000/svg" xmlns:xlink="http://www.w3.org/1999/xlink">
	<desc>
			Created with Pixso.
	</desc>
	<defs>
		<linearGradient id="paint_linear_0_810_0" x1="203.000000" y1="390.000000" x2="214.000000" y2="390.000000" gradientUnits="userSpaceOnUse">
			<stop stop-color="#183866"/>
			<stop offset="1.000000" stop-color="#1A7FC1"/>
		</linearGradient>
		<linearGradient id="paint_linear_0_816_0" x1="229.992188" y1="387.001221" x2="236.000000" y2="387.001221" gradientUnits="userSpaceOnUse">
			<stop stop-color="#000000"/>
			<stop offset="0.990000" stop-color="#000000" stop-opacity="0.000000"/>
		</linearGradient>
		<linearGradient id="paint_linear_0_817_0" x1="263.916107" y1="107.831314" x2="293.466888" y2="121.651016" gradientUnits="userSpaceOnUse">
			<stop stop-color="#000000"/>
			<stop offset="0.990000" stop-color="#000000" stop-opacity="0.000000"/>
		</linearGradient>
		<linearGradient id="paint_linear_0_818_0" x1="289.528625" y1="-96.560043" x2="244.070877" y2="-108.941879" gradientUnits="userSpaceOnUse">
			<stop stop-color="#000000"/>
			<stop offset="0.990000" stop-color="#000000" stop-opacity="0.000000"/>
		</linearGradient>
		<linearGradient id="paint_linear_0_819_0" x1="357.141846" y1="99.999252" x2="262.428131" y2="69.060211" gradientUnits="userSpaceOnUse">
			<stop stop-color="#000000"/>
			<stop offset="0.990000" stop-color="#000000" stop-opacity="0.000000"/>
		</linearGradient>
		<linearGradient id="paint_linear_0_820_0" x1="309.847321" y1="54.317944" x2="305.879456" y2="53.065136" gradientUnits="userSpaceOnUse">
			<stop stop-color="#000000"/>
			<stop offset="0.990000" stop-color="#000000" stop-opacity="0.000000"/>
		</linearGradient>
		<linearGradient id="paint_linear_0_821_0" x1="258.105774" y1="99.508263" x2="228.878555" y2="107.279228" gradientUnits="userSpaceOnUse">
			<stop stop-color="#000000"/>
			<stop offset="0.990000" stop-color="#000000" stop-opacity="0.000000"/>
		</linearGradient>
		<linearGradient id="paint_linear_0_827_0" x1="524.505310" y1="22.548737" x2="15.169888" y2="-1.970154" gradientUnits="userSpaceOnUse">
			<stop stop-color="#000000"/>
			<stop offset="1.000000" stop-color="#000000" stop-opacity="0.000000"/>
		</linearGradient>
		<linearGradient id="paint_linear_0_829_0" x1="212.122528" y1="244.725586" x2="474.119415" y2="244.725586" gradientUnits="userSpaceOnUse">
			<stop stop-color="#183866"/>
			<stop offset="1.000000" stop-color="#1A7FC1"/>
		</linearGradient>
		<linearGradient id="paint_linear_0_831_0" x1="75.455826" y1="225.212036" x2="103.084747" y2="332.565826" gradientUnits="userSpaceOnUse">
			<stop stop-color="#000000"/>
			<stop offset="0.990000" stop-color="#000000" stop-opacity="0.000000"/>
		</linearGradient>
		<linearGradient id="paint_linear_0_833_0" x1="197.154388" y1="250.813965" x2="290.628082" y2="280.723053" gradientUnits="userSpaceOnUse">
			<stop stop-color="#000000"/>
			<stop offset="0.990000" stop-color="#000000" stop-opacity="0.000000"/>
		</linearGradient>
		<linearGradient id="paint_linear_0_835_0" x1="237.493134" y1="260.691254" x2="235.097748" y2="279.086639" gradientUnits="userSpaceOnUse">
			<stop stop-color="#000000"/>
			<stop offset="0.990000" stop-color="#000000" stop-opacity="0.000000"/>
		</linearGradient>
		<linearGradient id="paint_linear_0_837_0" x1="126.110420" y1="47.953754" x2="81.724342" y2="46.240307" gradientUnits="userSpaceOnUse">
			<stop stop-color="#000000"/>
			<stop offset="0.990000" stop-color="#000000" stop-opacity="0.000000"/>
		</linearGradient>
		<linearGradient id="paint_linear_0_839_0" x1="133.366714" y1="77.172897" x2="96.285347" y2="75.905403" gradientUnits="userSpaceOnUse">
			<stop stop-color="#000000"/>
			<stop offset="0.990000" stop-color="#000000" stop-opacity="0.000000"/>
		</linearGradient>
		<linearGradient id="paint_linear_0_841_0" x1="-192.123886" y1="370.797211" x2="-210.883591" y2="463.535583" gradientUnits="userSpaceOnUse">
			<stop stop-color="#000000"/>
			<stop offset="0.990000" stop-color="#000000" stop-opacity="0.000000"/>
		</linearGradient>
		<linearGradient id="paint_linear_0_845_0" x1="78.206772" y1="64.728333" x2="75.018028" y2="84.368164" gradientUnits="userSpaceOnUse">
			<stop stop-color="#000000"/>
			<stop offset="0.990000" stop-color="#000000" stop-opacity="0.000000"/>
		</linearGradient>
		<linearGradient id="paint_linear_0_848_0" x1="221.983658" y1="161.008545" x2="262.998230" y2="161.008545" gradientUnits="userSpaceOnUse">
			<stop stop-color="#ECC4D7"/>
			<stop offset="0.420000" stop-color="#EFD4D1"/>
			<stop offset="1.000000" stop-color="#F2EAC9"/>
		</linearGradient>
		<linearGradient id="paint_linear_0_851_0" x1="268.632141" y1="233.608124" x2="306.631470" y2="233.608124" gradientUnits="userSpaceOnUse">
			<stop stop-color="#ECC4D7"/>
			<stop offset="0.420000" stop-color="#EFD4D1"/>
			<stop offset="1.000000" stop-color="#F2EAC9"/>
		</linearGradient>
		<linearGradient id="paint_linear_0_852_0" x1="322.291718" y1="239.852325" x2="352.291718" y2="239.852325" gradientUnits="userSpaceOnUse">
			<stop stop-color="#ECC4D7"/>
			<stop offset="0.420000" stop-color="#EFD4D1"/>
			<stop offset="1.000000" stop-color="#F2EAC9"/>
		</linearGradient>
		<linearGradient id="paint_linear_0_859_0" x1="450.176788" y1="203.011108" x2="286.641663" y2="311.770264" gradientUnits="userSpaceOnUse">
			<stop stop-color="#362958" stop-opacity="0.501961"/>
			<stop offset="1.000000" stop-color="#34313D" stop-opacity="0.000000"/>
		</linearGradient>
		<linearGradient id="paint_linear_0_862_0" x1="302.125092" y1="46.165257" x2="300.959259" y2="45.733921" gradientUnits="userSpaceOnUse">
			<stop stop-color="#000000"/>
			<stop offset="0.990000" stop-color="#000000" stop-opacity="0.000000"/>
		</linearGradient>
	</defs>
	<path d="M583.08 92.21C562.1 69.82 545.87 43.1 520.8 24.83C481.43 -3.92 424.76 -6.72 378.72 11.34C332.68 29.4 296.82 65.81 273.18 107.04C260.74 128.74 250.97 152.4 232.75 170.12C217.35 185.1 197.11 194.65 177.91 205.06C146.96 221.79 117.16 242.01 97.13 269.76C77.1 297.5 68.15 333.94 80.95 365.2C89.59 386.3 106.97 403.09 124.79 418.28C145.75 436.15 168.28 452.88 194.29 463.53C226.84 476.78 262.98 479.63 298.42 480.97C361.25 483.35 424.18 481.57 486.74 475.65C537.97 470.81 590.75 462.54 633.62 435.77C693.66 398.29 724.62 329.61 731.59 262.26C734.42 235.32 733.7 207.33 722.62 182.34C696.12 122.56 624.6 136.54 583.08 92.21Z" fill="#EFF1F7" fill-opacity="1.000000" fill-rule="nonzero"/>
	<path d="M178.31 202.33C178.31 202.33 161.71 199.38 157.06 211C152.41 222.61 157.06 262.73 157.06 262.73L219 307L178.31 202.33Z" fill="#3F3D56" fill-opacity="1.000000" fill-rule="nonzero"/>
	<path d="M256.2 379.72L231.64 386.73C228.07 387.74 224.33 385.78 223.27 382.34C222.22 378.91 224.26 375.3 227.82 374.28L252.34 367.26C255.91 366.25 259.65 368.21 260.71 371.64C261.77 375.07 259.75 378.69 256.2 379.72Z" fill="#2BD0D0" fill-opacity="1.000000" fill-rule="nonzero"/>
	<circle cx="255.000000" cy="395.000000" r="11.000000" fill="#25233A" fill-opacity="1.000000"/>
	<circle cx="253.500000" cy="397.500000" r="5.500000" fill="#3F3D56" fill-opacity="1.000000"/>
	<circle cx="210.000000" cy="384.000000" r="11.000000" fill="#25233A" fill-opacity="1.000000"/>
	<path d="M214 384.5C214 387.53 211.53 390 208.5 390C205.46 390 203 387.53 203 384.5C203 381.46 205.46 379 208.5 379C211.53 379 214 381.46 214 384.5Z" fill="url(#paint_linear_0_810_0)" fill-opacity="1.000000" fill-rule="nonzero"/>
	<circle cx="207.000000" cy="399.000000" r="11.000000" fill="#25233A" fill-opacity="1.000000"/>
	<path d="M216 399.5C216 402.53 213.53 405 210.5 405C207.46 405 205 402.53 205 399.5C205 396.46 207.46 394 210.5 394C213.53 394 216 396.46 216 399.5Z" fill="#3F3D56" fill-opacity="1.000000" fill-rule="nonzero"/>
	<path d="M257.08 390.87L206.29 380.82C202.72 380.11 200.41 376.69 201.13 373.19C201.86 369.69 205.34 367.42 208.91 368.12L259.7 378.15C263.27 378.87 265.58 382.28 264.87 385.79C264.14 389.29 260.66 391.57 257.08 390.87Z" fill="#2BD0D0" fill-opacity="1.000000" fill-rule="nonzero"/>
	<path d="M226 310L240 310L240 368.99C240 372.86 236.86 376 233 376C229.13 376 226 372.86 226 368.99L226 310L226 310Z" fill="#2BD0D0" fill-opacity="1.000000" fill-rule="nonzero"/>
	<path d="M231.18 386.7L206.65 393.73C203.08 394.74 199.33 392.78 198.27 389.34C197.22 385.9 199.26 382.29 202.82 381.27L227.36 374.26C230.92 373.25 234.66 375.21 235.72 378.64C236.76 382.08 234.73 385.68 231.18 386.7Z" fill="#2BD0D0" fill-opacity="1.000000" fill-rule="nonzero"/>
	<path d="M236 386.26L232.87 386.81C231.94 386.97 230.96 387.03 230 386.98L231.3 386.75C232.21 386.59 233.06 386.34 233.81 386L236 386.26Z" fill="url(#paint_linear_0_816_0)" fill-opacity="1.000000" fill-rule="nonzero"/>
	<path d="M261 372.73C260.99 374.29 260.48 375.79 259.54 377L239 372.65C239.51 371.91 239.89 371.07 240.09 370.18L252.75 366.26C254.39 365.76 256.16 365.97 257.66 366.84C259.16 367.71 260.27 369.16 260.74 370.89C260.91 371.49 260.99 372.11 261 372.73Z" fill="url(#paint_linear_0_817_0)" fill-opacity="1.000000" fill-rule="nonzero"/>
	<g opacity="0.310000">
		<path d="M225.22 371.1C225.07 370.58 225 370.05 225 369.52L225 311L230.94 311L230.94 374.07C230.88 374.38 230.9 374.69 231 375C230.1 374.68 229.13 374.51 228.15 374.48C227.46 374.44 226.77 374.44 226.07 374.48L226.5 374.38C226.76 374.34 225.56 372.29 225.22 371.1Z" fill="url(#paint_linear_0_818_0)" fill-opacity="1.000000" fill-rule="nonzero"/>
	</g>
	<g opacity="0.310000">
		<path d="M262.28 389.8C261.31 390.32 260.22 390.59 259.11 390.59C258.67 390.59 258.22 390.55 257.79 390.46L235.38 386.06L233.51 385.69C232.87 386.17 232.15 386.53 231.38 386.75L230.27 387.06L207.24 393.73C203.73 394.74 200.04 392.79 199 389.37C200.99 391.17 204.02 391.34 206.22 389.77C209.03 387.87 220.22 385.03 226.56 383.51C229.56 382.81 231.85 380.46 232.41 377.51C232.42 377.34 232.45 377.17 232.49 377C233.54 378.11 235.48 379.36 238.99 380.42C247.63 383.01 261.66 384.72 261.66 384.72C261.66 384.72 264.19 387.14 262.28 389.8Z" fill="url(#paint_linear_0_819_0)" fill-opacity="1.000000" fill-rule="nonzero"/>
	</g>
	<path d="M264 388C263.47 388.77 262.79 389.45 262 390C262.53 389.47 263.22 388.78 264 388Z" fill="url(#paint_linear_0_820_0)" fill-opacity="1.000000" fill-rule="nonzero"/>
	<path d="M226.29 370.55C226.57 371.72 227.16 372.8 228 373.68C227.79 373.72 227.57 373.78 227.35 373.84L206.08 380C202.81 379.18 200.66 376.13 201.04 372.85C201.42 369.57 204.22 367.07 207.6 367C208.05 367 208.5 367.04 208.94 367.13L226.29 370.55Z" fill="url(#paint_linear_0_821_0)" fill-opacity="1.000000" fill-rule="nonzero"/>
	<path d="M259 89.4C259 89.4 258.72 68.6 241.92 70.39C225.12 72.19 226.41 65.3 219.23 66.05C212.06 66.81 203.72 73.84 206.12 82.52C208.51 91.2 199.78 93.14 194.05 99.73C188.32 106.32 195.4 111.71 205.06 118.15C214.72 124.59 204.46 122.92 210.18 133.1C215.91 143.28 235.29 130.28 235.29 130.28L259 89.4Z" fill="#503164" fill-opacity="1.000000" fill-rule="nonzero"/>
	<path d="M122.66 434.6L134.39 435L134.39 341.25C134.39 341.25 134.98 317.01 157.84 314.58C180.7 312.15 388.04 282.11 388.04 282.11C388.04 282.11 396.26 281.24 400.99 297.01C405.72 312.78 410.33 374.8 410.33 374.8L473.97 383.38C473.97 383.38 475.65 273.83 452.67 267.78C429.69 261.74 129.14 292.54 129.14 292.54C129.14 292.54 106.85 408.89 122.66 434.6Z" fill="#2BD0D0" fill-opacity="1.000000" fill-rule="nonzero"/>
	<g opacity="0.197289">
		<path d="M122.66 434.6L134.39 435L134.39 341.25C134.39 341.25 134.98 317.01 157.84 314.58C180.7 312.15 388.04 282.11 388.04 282.11C388.04 282.11 396.26 281.24 400.99 297.01C405.72 312.78 410.33 374.8 410.33 374.8L473.97 383.38C473.97 383.38 475.65 273.83 452.67 267.78C429.69 261.74 129.14 292.54 129.14 292.54C129.14 292.54 106.85 408.89 122.66 434.6Z" fill="url(#paint_linear_0_827_0)" fill-opacity="1.000000" fill-rule="nonzero"/>
	</g>
	<path d="M62 303.78C62 303.78 67.74 272.02 108.14 263.7L393.32 231.06C393.32 231.06 421.32 229.9 434.13 237.64C446.93 245.39 465.21 251.81 472.71 286.87C480.2 321.92 482 381.81 482 381.81L474.91 382.91C474.91 382.91 464.56 274.47 453.59 267.6C442.63 260.74 146.19 302.86 146.19 302.86C146.19 302.86 125.63 306.95 123.84 337.39C122.05 367.83 123.84 434 123.84 434L62 409.05L62 303.78Z" fill="#2BD0D0" fill-opacity="1.000000" fill-rule="nonzero"/>
	<g opacity="0.190000">
		<path d="M355.42 243.84C340.66 241.94 325.78 240.56 310.9 241.12C299.72 241.55 288.62 243.09 277.53 244.61L179.75 258.12C178.1 258.34 176.2 258.72 175.38 260.16C173.78 262.91 177.52 265.62 180.56 266.67C213.07 277.93 247.8 289.33 281.26 281.3C296.56 277.63 310.78 270.01 326.29 267.37C341.81 264.72 357.74 267.16 373.23 264.66C387.78 262.32 401.64 255.65 416.4 255.59C420.92 255.59 425.58 256.16 429.87 254.75C434.17 253.33 437.96 249.01 436.77 244.7C422.92 244.22 407.37 241.69 393.78 244.44C380.33 247.15 368.89 243.84 355.42 243.84Z" fill="url(#paint_linear_0_829_0)" fill-opacity="1.000000" fill-rule="nonzero"/>
	</g>
	<path d="M267 259.38L267.57 261.49C267.57 261.49 284.45 271.66 284.34 271.99C284.23 272.32 354.36 255.75 354.36 255.75L356 251L267 259.38Z" fill="#2BD0D0" fill-opacity="1.000000" fill-rule="nonzero"/>
	<path d="M267 259.38L267.57 261.49C267.57 261.49 284.45 271.66 284.34 271.99C284.23 272.32 354.36 255.75 354.36 255.75L356 251L267 259.38Z" fill="url(#paint_linear_0_831_0)" fill-opacity="1.000000" fill-rule="nonzero"/>
	<path d="M268 259.36L330.1 246L356 251.05L285.44 268L268 259.36Z" fill="#2BD0D0" fill-opacity="1.000000" fill-rule="nonzero"/>
	<path d="M268 259.36L330.1 246L356 251.05L285.44 268L268 259.36Z" fill="url(#paint_linear_0_833_0)" fill-opacity="1.000000" fill-rule="nonzero"/>
	<path d="M247.83 270.48L262.28 270.99C262.28 270.99 265.96 271.22 266.91 268.27C267.85 265.33 261.01 259.11 260.28 259C259.55 258.88 240.52 264.22 243.27 269.55L247.83 270.48Z" fill="#2BD0D0" fill-opacity="1.000000" fill-rule="nonzero"/>
	<path d="M247.83 270.48L262.28 270.99C262.28 270.99 265.96 271.22 266.91 268.27C267.85 265.33 261.01 259.11 260.28 259C259.55 258.88 240.52 264.22 243.27 269.55L247.83 270.48Z" fill="url(#paint_linear_0_835_0)" fill-opacity="1.000000" fill-rule="nonzero"/>
	<path d="M79 416.05L71.94 437.73C51.46 445.08 34.06 437.73 34.06 437.73L29 415C29 415 54.53 423.56 79 416.05Z" fill="#2BD0D0" fill-opacity="1.000000" fill-rule="nonzero"/>
	<path d="M79 416.05L71.94 437.73C51.46 445.08 34.06 437.73 34.06 437.73L29 415C29 415 54.53 423.56 79 416.05Z" fill="url(#paint_linear_0_837_0)" fill-opacity="1.000000" fill-rule="nonzero"/>
	<path d="M87 396L84.71 412.94L78.92 415.95C54.28 423.37 28.51 414.91 28.51 414.91L24.07 411.63L22 396L87 396Z" fill="#2BD0D0" fill-opacity="1.000000" fill-rule="nonzero"/>
	<path d="M87 396L84.71 412.94L78.92 415.95C54.28 423.37 28.51 414.91 28.51 414.91L24.07 411.63L22 396L87 396Z" fill="url(#paint_linear_0_839_0)" fill-opacity="1.000000" fill-rule="nonzero"/>
	<ellipse cx="54.500000" cy="395.000000" rx="32.500000" ry="6.000000" fill="#2BD0D0" fill-opacity="1.000000"/>
	<ellipse cx="54.500000" cy="395.000000" rx="32.500000" ry="6.000000" fill="url(#paint_linear_0_841_0)" fill-opacity="1.000000"/>
	<path d="M39.64 265.03C36.45 263.51 33.03 262.37 30.28 260.15C24.73 255.66 23.33 247.91 21.59 240.96C19.85 234.01 16.49 226.36 9.65 224.37C7.08 223.63 4.08 223.93 2.13 225.76C0.08 227.69 -0.34 230.87 0.22 233.67C0.78 236.48 2.15 238.99 3.21 241.65C5.67 247.82 6.43 254.55 5.38 261.13C4.52 266.51 2.45 271.98 3.78 277.26C6.03 286.22 17.25 291.48 17.56 300.72C17.77 306.95 12.67 312.72 13.83 318.85C14.68 323.39 18.83 326.93 19.05 331.54C19.31 336.77 14.39 341.2 14.63 346.43C14.87 351.66 20.06 355.15 23.45 359.27C26.29 362.72 27.97 366.99 28.27 371.46C28.45 374.25 28.09 377.14 29 379.79C29.66 381.72 30.98 383.36 32 385.1C33.13 386.98 33.98 389.02 35.34 390.76C38.84 395.2 44.68 397.04 50.07 395.41C51.12 388.46 50.2 381.37 50.49 374.34C51.07 360.74 56.18 347.02 52.91 333.81C51.71 328.97 49.4 324.37 48.99 319.4C48.62 314.96 49.8 310.56 50.62 306.18C52.31 297.14 52.28 287.79 51.59 278.64C51.04 271.39 45.97 268.04 39.64 265.03Z" fill="#2BD0D0" fill-opacity="1.000000" fill-rule="nonzero"/>
	<path d="M59.75 300.76C59.69 306.82 61.08 313.09 59.13 318.85C57.67 323.21 54.43 326.78 52.76 331.07C48.91 340.97 54.09 352.07 53.04 362.64C52.6 366.99 51.1 371.18 50.16 375.45C48.98 380.87 48.7 386.43 49.31 391.94C49.18 394.01 50.59 395.86 52.63 396.28C55.89 397.52 59.26 398.43 62.71 399C61.54 392.59 62.77 385.97 66.15 380.41C71.42 371.78 81.67 365.96 83.58 356.05C84.87 349.33 81.87 342.52 82.08 335.69C82.23 331.15 83.8 326.76 86.56 323.14C89.04 319.92 92.4 317.42 94.71 314.07C100.25 306.01 98.52 295.23 96.88 285.58C95.23 275.93 94.27 264.83 100.79 257.52C102.85 255.21 105.53 253.48 107.4 251.01C111.57 245.51 110.52 237.03 105.67 232.11C100.83 227.19 93.04 225.83 86.45 227.99C83.68 228.81 81.23 230.47 79.44 232.75C76.12 237.47 77.45 243.91 78.86 249.51C80.09 254.38 81.08 259.99 79.4 264.9C78.14 268.55 74.96 270.53 72.25 273.07C64.5 280.23 59.99 290.22 59.75 300.76Z" fill="#2BD0D0" fill-opacity="1.000000" fill-rule="nonzero"/>
	<path d="M53.06 354.52C52.12 361.11 50.77 367.76 50.49 374.37L50.49 375.03C50.47 375.2 50.44 375.36 50.38 375.51C49.2 380.93 48.91 386.5 49.51 392.01C49.55 392.91 49.77 393.78 50.17 394.58C50.14 394.86 50.1 395.13 50.06 395.41C44.67 397.04 38.83 395.2 35.33 390.76C34.01 389.02 33.12 386.98 31.99 385.1C30.93 383.35 29.64 381.71 28.98 379.79C28.08 377.13 28.43 374.25 28.26 371.46C27.96 366.98 26.27 362.72 23.43 359.26C20.04 355.18 14.84 351.75 14.61 346.43C14.38 341.11 19.29 336.77 19.03 331.54C18.81 326.93 14.66 323.39 13.8 318.85C12.65 312.71 17.77 306.95 17.54 300.71C17.22 291.47 6 286.22 3.75 277.25C2.43 271.97 4.49 266.51 5.36 261.12C6.41 254.55 5.66 247.83 3.21 241.66C2.15 239 0.78 236.49 0.22 233.68C-0.34 230.87 0.08 227.7 2.13 225.76C4.11 223.93 7.09 223.63 9.65 224.37C16.5 226.36 19.85 234.03 21.6 240.99C23.34 247.94 24.74 255.68 30.29 260.19C33.03 262.41 36.47 263.54 39.65 265.06C45.99 268.07 51.06 271.42 51.6 278.61C52.26 287.75 52.32 297.1 50.63 306.15C49.81 310.53 48.65 314.93 49 319.37C49.35 323.81 51.27 328.01 52.53 332.31C52.67 332.8 52.81 333.29 52.93 333.78C54.59 340.62 54.05 347.54 53.06 354.52Z" fill="#30C59B" fill-opacity="1.000000" fill-rule="nonzero"/>
	<path d="M49.71 394C49.42 393.22 49.24 392.38 49.21 391.51C48.78 386.15 49 380.73 49.85 375.46C49.87 375.31 49.9 375.15 49.93 375C49.76 381.34 50.3 387.74 49.71 394Z" fill="url(#paint_linear_0_845_0)" fill-opacity="1.000000" fill-rule="nonzero"/>
	<path d="M107.39 251.01C105.52 253.48 102.83 255.21 100.76 257.52C94.23 264.82 95.19 275.93 96.84 285.58C98.5 295.23 100.23 306.01 94.67 314.07C92.36 317.39 89 319.92 86.51 323.14C83.75 326.76 82.18 331.15 82.03 335.69C81.81 342.52 84.82 349.33 83.53 356.05C81.62 365.96 71.35 371.79 66.07 380.41C62.7 385.98 61.48 392.59 62.65 399C59.21 398.43 55.84 397.52 52.59 396.28C51.7 396.02 50.89 395.53 50.24 394.87C50.15 394.76 50.07 394.64 49.99 394.52C49.58 393.73 49.34 392.86 49.3 391.97C48.7 386.46 49 380.9 50.18 375.49C50.21 375.33 50.25 375.17 50.29 375.01C51.24 370.9 52.64 366.87 53.07 362.67C53.29 359.95 53.24 357.22 52.91 354.51C53.91 347.54 54.45 340.62 52.75 333.84C52.63 333.35 52.49 332.86 52.35 332.37C52.48 331.95 52.63 331.52 52.79 331.1C54.46 326.81 57.7 323.24 59.17 318.88C61.11 313.12 59.73 306.86 59.79 300.79C59.87 290.33 64.61 280.21 72.21 273.07C74.92 270.53 78.12 268.55 79.37 264.9C81.06 259.99 80.04 254.38 78.83 249.51C77.42 243.91 76.07 237.47 79.42 232.75C81.09 230.41 83.71 228.89 86.44 227.99C93.01 225.83 100.85 227.19 105.69 232.11C110.53 237.03 111.56 245.54 107.39 251.01Z" fill="#30C59B" fill-opacity="1.000000" fill-rule="nonzero"/>
	<path d="M225.57 146.14C225.57 146.14 197.75 150.44 184.88 181.12C172.02 211.8 178.71 249.8 178.93 253.15C179.16 256.49 218.36 271 229.57 271C240.78 271 243.11 259.77 243.11 259.77L223.31 251.33L283.48 244.38L294.28 244.38L288.33 254.42C288.33 254.42 300.07 255.65 307.92 255.93C315.77 256.21 321.1 240.69 321.98 232.97C322.86 225.25 287.31 157.51 282 153.5C276.69 149.49 262.29 139.68 225.57 146.14Z" fill="#2BD0D0" fill-opacity="1.000000" fill-rule="nonzero"/>
	<path d="M258.39 88.77C258.39 88.77 263.42 91.6 262.97 100.76C262.51 109.91 259.68 123.69 256.81 127.26C253.95 130.83 243.94 132.22 243.94 132.22C243.94 132.22 249.4 145.2 253.46 148.55C257.53 151.9 249.38 164.24 241.45 160.19C233.52 156.14 224.33 145.97 224.33 145.97C224.33 145.97 230.94 133.73 228.71 127.28C226.47 120.84 217.93 98.22 224.33 92.04C230.72 85.86 244.52 77.01 258.39 88.77Z" fill="url(#paint_linear_0_848_0)" fill-opacity="1.000000" fill-rule="nonzero"/>
	<g opacity="0.250000">
		<path d="M214.33 190L210 244.05L223.23 251L234 249.12L220.57 232.61L214.33 190Z" fill="#FFFFFF" fill-opacity="1.000000" fill-rule="nonzero"/>
	</g>
	<g opacity="0.250000">
		<path d="M284 187C284 187 301.9 229.07 293.97 244L287.85 242.83L284 187Z" fill="#FFFFFF" fill-opacity="1.000000" fill-rule="nonzero"/>
	</g>
	<path d="M235.52 258.04C235.52 258.04 228.75 263.82 231.77 268.31C234.79 272.8 238.4 272.67 241.4 270.66C244.41 268.65 250.31 263.89 257.35 266.07C264.38 268.26 266.09 269.65 266.09 269.65C266.09 269.65 269.8 267.34 268.84 265.01C267.87 262.69 260.52 255.17 258.38 254.19C256.25 253.22 247.4 256.21 247.4 256.21C247.4 256.21 240.9 254.45 235.52 258.04Z" fill="url(#paint_linear_0_851_0)" fill-opacity="1.000000" fill-rule="nonzero"/>
	<path d="M295.19 245.59C295.19 245.59 288.8 246.35 287.19 250.55C285.57 254.75 285 255.26 285 255.26C285 255.26 288.6 255.95 290.1 254C291.6 252.04 293.16 252.86 293.16 252.86L292.71 255.37C292.71 255.37 302.51 256.85 306.94 255.26C311.36 253.67 313.26 251.81 313.26 251.81L315 247.57C315 247.57 310.82 244.54 307.66 244.07C304.51 243.6 295.19 245.59 295.19 245.59Z" fill="url(#paint_linear_0_852_0)" fill-opacity="1.000000" fill-rule="nonzero"/>
	<path d="M328.89 290C328.89 290 350.82 306.68 348.87 329.25C346.92 351.83 344.06 385.34 344.06 385.34C344.06 385.34 335.21 389.06 329.35 385.34C323.49 381.62 319.94 330.69 317.04 325.83C314.13 320.96 296.66 299.04 278 297.15L328.89 290Z" fill="#25233A" fill-opacity="1.000000" fill-rule="nonzero"/>
	<path d="M219 306.05C219 306.05 229.44 315.95 248.06 319.06C266.68 322.16 275.35 324.76 281.04 340.66C286.74 356.57 292.19 390.8 293.98 394.62C295.76 398.45 303.36 396.5 303.36 396.5C303.36 396.5 307.66 391.6 307.66 364.38C307.66 326.44 310.31 318.66 300.75 309.13C291.18 299.59 282.47 297 282.47 297L219 306.05Z" fill="#3F3D56" fill-opacity="1.000000" fill-rule="nonzero"/>
	<path d="M294 396L295.82 410.19L299.22 410.19C299.22 410.19 321.17 411.38 321.86 410.87C322.55 410.35 320.8 399.62 312.49 399.93C304.17 400.23 303.63 397.9 303.63 397.9L294 396Z" fill="#25233A" fill-opacity="1.000000" fill-rule="nonzero"/>
	<path d="M331 386.15L334.51 400L372.95 394.78C372.95 394.78 374.3 385.69 362.13 386.59C358.91 386.83 356.52 389.06 352.66 389.08C348.79 389.1 345.09 387.53 343.15 385L331 386.15Z" fill="#25233A" fill-opacity="1.000000" fill-rule="nonzero"/>
	<path d="M461.8 212.33L319.56 219.99C316.12 220.17 313.18 217.52 313 214.06C313 213.95 313 213.84 313 213.73L313 112.47C313 108.37 316.26 105.02 320.34 104.93L462 102C463.82 101.96 465.58 102.65 466.89 103.91C468.2 105.18 468.96 106.92 469 108.74L469 204.71C468.99 208.77 465.83 212.11 461.8 212.33Z" fill="#2BD0D0" fill-opacity="1.000000" fill-rule="nonzero"/>
	<path d="M469.8 212.33L327.55 219.99C324.11 220.16 321.18 217.51 321 214.05C321 213.95 321 213.84 321 213.73L321 112.47C320.99 108.37 324.26 105.02 328.34 104.93L470.02 102C473.79 101.93 476.92 104.94 477 108.73L477 204.71C476.99 208.77 473.83 212.11 469.8 212.33Z" fill="#2BD0D0" fill-opacity="1.000000" fill-rule="nonzero"/>
	<path d="M469.8 212.33L327.55 219.99C324.11 220.16 321.18 217.51 321 214.05C321 213.95 321 213.84 321 213.73L321 112.47C320.99 108.37 324.26 105.02 328.34 104.93L470.02 102C473.79 101.93 476.92 104.94 477 108.73L477 204.71C476.99 208.77 473.83 212.11 469.8 212.33Z" fill="url(#paint_linear_0_859_0)" fill-opacity="1.000000" fill-rule="nonzero"/>
	<path d="M427.77 251.13L391.47 255C391.47 255 380.42 252.77 381.02 251.13C381.62 249.5 393.17 247.93 393.17 247.93L393.17 182.12C393.08 181.98 391.55 180.04 387.39 178.81C386.58 178.57 385.76 178.38 384.93 178.24C384.21 178.13 383.52 177.92 382.87 177.61C380.39 176.33 383.13 174.1 386.97 174C387.58 173.98 388.18 174.02 388.78 174.11L416.69 174.11C416.69 174.11 427.26 177.08 427.77 191.92C428.28 206.76 427.77 251.13 427.77 251.13Z" fill="#3A3054" fill-opacity="1.000000" fill-rule="nonzero"/>
	<path d="M398 251.27L391.32 255C391.32 255 380.43 252.77 381.02 251.13C381.61 249.5 393.01 247.93 393.01 247.93L393.01 182.12C392.88 181.97 391.21 180.22 387.31 178.8C385.86 178.28 384.37 177.88 382.86 177.61C380.42 176.32 383.11 174.1 386.9 174C390.13 174.44 396.49 178.02 396.9 180.07C397.31 182.11 398 251.27 398 251.27Z" fill="#51466B" fill-opacity="1.000000" fill-rule="nonzero"/>
	<path d="M263 389C262.11 390 261.7 390.37 262.23 389.54C262.5 389.38 262.75 389.2 263 389Z" fill="url(#paint_linear_0_862_0)" fill-opacity="1.000000" fill-rule="nonzero"/>
</svg>
