<svg width="120.000000" height="32.000000" viewBox="0 0 120 32" fill="none" xmlns="http://www.w3.org/2000/svg" xmlns:xlink="http://www.w3.org/1999/xlink">
	<desc>
			Created with Pixso.
	</desc>
	<defs/>
	<path id="logo" d="M15.7146 6.93201C15.6465 6.84143 15.4084 6.67139 15.0005 6.422C14.5925 6.17273 14.0825 5.91211 13.4705 5.64001C12.8584 5.36804 12.1899 5.13 11.4646 4.92603C10.7393 4.72205 10.0139 4.62 9.28857 4.62C7.29395 4.62 6.29663 5.2887 6.29663 6.6261C6.29663 7.03406 6.4043 7.37402 6.61963 7.646C6.83496 7.91809 7.1521 8.16174 7.57153 8.37708C7.99097 8.59241 8.51782 8.79077 9.15259 8.97205L10.5579 9.36499C10.8147 9.43542 11.083 9.50854 11.3625 9.58411C12.5186 9.90137 13.5613 10.2471 14.4905 10.6211C15.4199 10.995 16.2075 11.4597 16.8535 12.015C17.4995 12.5704 17.9983 13.2448 18.3496 14.0381C18.7009 14.8314 18.8765 15.7833 18.8765 16.894C18.8765 18.254 18.6216 19.4044 18.1116 20.3451C17.6016 21.2858 16.9272 22.045 16.0886 22.623C15.2498 23.201 14.2866 23.6204 13.1985 23.8811C12.1106 24.1417 10.9885 24.2721 9.83252 24.2721C8.94849 24.2721 8.04175 24.2041 7.11255 24.0681C6.18311 23.932 5.27661 23.7338 4.39258 23.473C3.50854 23.2124 2.65283 22.9008 1.82544 22.5381C0.998291 22.1754 0.233154 21.7561 -0.469482 21.28L1.97852 16.4181C2.06909 16.5314 2.36377 16.7467 2.86255 17.0641C3.36108 17.3813 3.97876 17.6987 4.71558 18.0161C5.45215 18.3334 6.27393 18.6167 7.18042 18.8661C8.08716 19.1154 9.00513 19.2401 9.93457 19.2401C11.9065 19.2401 12.8926 18.6394 12.8926 17.4381C12.8926 16.9847 12.7451 16.6107 12.4504 16.316C12.1558 16.0214 11.7478 15.755 11.2266 15.5171C10.792 15.3187 10.2908 15.1322 9.72241 14.9575L8.021 14.4624C7.70557 14.3699 7.37988 14.2738 7.04443 14.1741C5.93384 13.8341 4.97046 13.4657 4.15454 13.0691C3.33862 12.6724 2.66431 12.2134 2.13159 11.692C1.59888 11.1708 1.20215 10.5701 0.941406 9.89001C0.680908 9.21008 0.550537 8.41675 0.550537 7.51001C0.550537 6.24072 0.788574 5.11877 1.2644 4.14404C1.74048 3.16943 2.38647 2.34778 3.20264 1.67908C4.01855 1.01038 4.96484 0.506104 6.0415 0.166016C7.11816 -0.17395 8.25708 -0.343994 9.4585 -0.343994C10.2971 -0.343994 11.1245 -0.264648 11.9404 -0.105957C12.7566 0.0527344 13.5386 0.256714 14.2866 0.506104C15.0344 0.755371 15.7314 1.0387 16.3774 1.35608C17.0234 1.67334 17.6184 1.99072 18.1626 2.30811L15.7146 6.93201ZM39.1387 24L33.6987 24L33.6987 13.9701C33.6987 12.8141 33.4719 11.9641 33.0186 11.42C32.5652 10.8761 31.9419 10.604 31.1487 10.604C30.8313 10.604 30.4856 10.6777 30.1116 10.8251C29.7375 10.9724 29.375 11.1877 29.0237 11.4711C28.6724 11.7544 28.3494 12.0887 28.0547 12.474C27.76 12.8594 27.5332 13.29 27.3745 13.7661L27.3745 24L21.9346 24L21.9346 -0.819946L27.3745 -0.819946L27.3745 9.14209C28.032 8.07666 28.8989 7.255 29.9756 6.677C31.0522 6.099 32.2366 5.81006 33.5286 5.81006C34.73 5.81006 35.699 6.01978 36.4355 6.43909C37.1724 6.8584 37.739 7.39099 38.1357 8.03711C38.5322 8.68311 38.7986 9.40833 38.9346 10.213C39.0706 11.0177 39.1387 11.8054 39.1387 12.576L39.1387 24ZM51.4788 24.3401C49.96 24.3401 48.6057 24.0907 47.4158 23.592C46.2258 23.0934 45.2227 22.4191 44.4067 21.5691C43.5908 20.719 42.9731 19.733 42.5537 18.6111C42.1345 17.489 41.9248 16.316 41.9248 15.092C41.9248 13.868 42.1345 12.6951 42.5537 11.573C42.9731 10.451 43.5908 9.46509 44.4067 8.61511C45.2227 7.76501 46.2258 7.08508 47.4158 6.57507C48.6057 6.06506 49.96 5.81006 51.4788 5.81006C52.9973 5.81006 54.3462 6.06506 55.5247 6.57507C56.7034 7.08508 57.7007 7.76501 58.5168 8.61511C59.3328 9.46509 59.9561 10.451 60.3867 11.573C60.8174 12.6951 61.0327 13.868 61.0327 15.092C61.0327 16.316 60.823 17.489 60.4038 18.6111C59.9844 19.733 59.3667 20.719 58.5508 21.5691C57.7346 22.4191 56.7317 23.0934 55.5417 23.592C54.3518 24.0907 52.9973 24.3401 51.4788 24.3401ZM48.6228 18.4751C47.8748 17.625 47.5007 16.4974 47.5007 15.092C47.5007 14.4121 47.6028 13.7831 47.8066 13.2051C48.0107 12.6271 48.2883 12.134 48.6396 11.7261C48.991 11.318 49.4104 11.0007 49.8977 10.774C50.385 10.5474 50.9121 10.4341 51.4788 10.4341C52.6121 10.4341 53.5527 10.859 54.3008 11.7091C55.0488 12.5591 55.4229 13.6868 55.4229 15.092C55.4229 15.7721 55.3208 16.401 55.1167 16.979C54.9128 17.557 54.635 18.05 54.2837 18.458C53.9324 18.8661 53.5188 19.1833 53.0427 19.41C52.5667 19.6367 52.0454 19.75 51.4788 19.75C50.3228 19.75 49.3708 19.3251 48.6228 18.4751ZM75.2769 10.8081C73.9622 10.8307 72.7722 11.046 71.7068 11.4541C70.6416 11.8621 69.8708 12.474 69.3948 13.29L69.3948 24L63.9548 24L63.9548 6.15002L68.9529 6.15002L68.9529 9.75403C69.5649 8.55273 70.3525 7.61206 71.3159 6.93201C72.2793 6.25208 73.3049 5.90076 74.3928 5.87805L74.9368 5.87805C75.0503 5.87805 75.1636 5.8894 75.2769 5.91211L75.2769 10.8081ZM89.3511 23.0481C88.603 23.3654 87.7473 23.66 86.7839 23.932C85.8206 24.2041 84.8516 24.3401 83.877 24.3401C83.197 24.3401 82.5566 24.255 81.9561 24.0851C81.3552 23.915 80.8284 23.6431 80.375 23.269C79.9216 22.895 79.5647 22.4021 79.304 21.79C79.0432 21.1781 78.9131 20.4414 78.9131 19.5801L78.9131 10.264L76.635 10.264L76.635 6.15002L78.9131 6.15002L78.9131 0.472046L84.353 0.472046L84.353 6.15002L87.991 6.15002L87.991 10.264L84.353 10.264L84.353 17.7101C84.353 18.2994 84.5002 18.7244 84.7949 18.9851C85.0896 19.2457 85.4636 19.3761 85.917 19.3761C86.325 19.3761 86.7444 19.3081 87.175 19.172C87.6057 19.036 87.9797 18.8887 88.2969 18.7301L89.3511 23.0481ZM91.627 -0.819946L97.0671 -0.819946L97.0671 17.6421C97.0671 19.0021 97.645 19.682 98.801 19.682C99.073 19.682 99.3733 19.6423 99.7021 19.5631C100.031 19.4838 100.331 19.3647 100.603 19.2061L101.317 23.286C100.637 23.6034 99.855 23.8527 98.9712 24.0341C98.0872 24.2153 97.2598 24.306 96.489 24.306C94.925 24.306 93.7236 23.8981 92.885 23.082C92.0464 22.266 91.627 21.0874 91.627 19.546L91.627 -0.819946ZM103.083 26.686C103.537 26.8447 103.961 26.958 104.358 27.026C104.755 27.094 105.112 27.1281 105.429 27.1281C106.086 27.1281 106.596 26.9014 106.959 26.448C107.322 25.9948 107.651 25.1787 107.945 24L101.145 6.15002L106.755 6.15002L110.903 19.342L114.473 6.15002L119.573 6.15002L112.773 26.89C112.297 28.3634 111.447 29.5591 110.223 30.4771C108.999 31.395 107.549 31.854 105.871 31.854C105.418 31.854 104.959 31.8143 104.494 31.7351C104.03 31.6558 103.559 31.5254 103.083 31.344L103.083 26.686Z" clip-rule="evenodd" fill="#34313D" fill-opacity="1.000000" fill-rule="evenodd"/>
</svg>
